<svg xmlns="http://www.w3.org/2000/svg" viewBox="0 0 24 24" fill="#333"><path d="M12 .3A12 12 0 000 12.3c0 5.3 3.4 9.8 8 11.4.6.1.8-.2.8-.5v-2c-3.3.7-4-1.5-4-1.5-.5-1.1-1.2-1.4-1.2-1.4-1-.7.1-.7.1-.7 1.1.1 1.6 1.1 1.6 1.1 1 .1.7-.8 1.2-1 .8-.2 2 .6 2.5 1.1.2.6.8 1.2 1.7 1.2 1.4 0 2.6-1.3 2.6-2.6 0-.4 0-.7-.1-1 2.3-.2 4.6-1.1 4.6-5a4 4 0 00-1.1-2.8 3.6 3.6 0 00-.1-2.7s-.9-.3-2.9 1a10.1 10.1 0 00-5.3 0c-2-1.3-2.9-1-2.9-1a3.6 3.6 0 00-.1 2.7 4 4 0 00-1.1 2.8c0 3.9 2.3 4.8 4.6 5 0 .3 0 .6-.1 1 0 1.3 1.1 2.6 2.6 2.6 1 0 1.5-.6 1.7-1.2.5-.5 1.7-1.3 2.5-1.1.5.2.2 1.1 1.2 1 .1 0 .5-.1.6-.3l.8.1C20.6 22 24 17.6 24 12.3A12 12 0 0012 .3z"/></svg>